<?xml version="1.0" encoding="UTF-8"?>
<svg width="40" height="40" viewBox="0 0 40 40" xmlns="http://www.w3.org/2000/svg">
  <g fill="#161615">
    <path d="M10 8l-4 12h-0.2l-1-12H0l2 18h5l8-18h-5z"/>
    <path d="M30 12c-2.4-1.2-2.8-1.6-2.7-2.5c0.1-1.2 1.3-1.4 1.7-1.4c1.1-0.1 2.2 0.6 2.8 1.8l3.2-2.3c-1.1-2.2-3.3-3.5-5.9-3.4c-3.5 0.2-5.8 1.7-6 4.8c-0.1 2.1 1.3 4.1 3.6 5.3c2.3 1.2 2.7 1.9 2.5 2.9c-0.1 0.6-0.8 1.2-1.8 1.2c-1.7 0-2.5-1.8-2.5-1.8l-4 1.6c0 0 1.9 4.6 6.6 4.4c3 0 6.3-2.2 6.2-6.3c-0.1-2.2-1.1-3.6-3.7-4.8z"/>
    <path d="M20 8l-8 18h2l8-18h-2z"/>
  </g>
</svg>